<?xml version="1.0" encoding="UTF-8" standalone="no" ?>
<!DOCTYPE svg PUBLIC "-//W3C//DTD SVG 1.1//EN" "http://www.w3.org/Graphics/SVG/1.1/DTD/svg11.dtd">
<svg xmlns="http://www.w3.org/2000/svg" xmlns:xlink="http://www.w3.org/1999/xlink" version="1.1" width="50" height="50" viewBox="0 0 50 50" xml:space="preserve">
<desc>Created with Fabric.js 5.3.0</desc>
<defs>
<clipPath id="CLIPPATH_2" >
	<rect transform="matrix(1 0 0 1 25 25)" x="-25" y="-25" rx="0" ry="0" width="50" height="50" />
</clipPath>
</defs>
<g clip-path="url(#CLIPPATH_2)" >

<g transform="matrix(0.0496 0 0 0.0488 25.0308 25.0673)" id="5996f210-8383-492e-a43d-f4ba58af7221"  >
<path style="stroke: none; stroke-width: 1; stroke-dasharray: none; stroke-linecap: butt; stroke-dashoffset: 0; stroke-linejoin: miter; stroke-miterlimit: 4; fill: rgb(64,158,255); fill-rule: nonzero; opacity: 1;"  transform=" translate(-512.6302, -513.3777)" d="M 738.4 785.6 L 706.4 778.8000000000001 L 693.6 748.4000000000001 L 676.4 776.0000000000001 L 643.6 778.8000000000001 L 665.2 804.0000000000001 L 657.6 835.6000000000001 L 687.6 822.8000000000002 L 715.2 840.0000000000002 L 712.8000000000001 807.6000000000003 z M 515.6 159.6 L 500.40000000000003 132 L 486.00000000000006 162.4 C 485.6000000000001 162.4 452.80000000000007 168.4 455.6000000000001 168 L 480.80000000000007 189.6 L 475.6000000000001 222.39999999999998 L 503.2000000000001 204.79999999999998 L 533.6000000000001 219.2 L 526.8000000000002 186.39999999999998 L 548.4000000000002 162.39999999999998 L 515.6000000000003 159.59999999999997 z M 569.6 863.6 L 570.4 864.4 C 570.4 864 570 863.6 569.6 863.6 z M 186.8 391.6 L 218.4 382.40000000000003 L 243.6 402.40000000000003 L 243.6 369.6 L 270.4 350.8 L 238.79999999999998 339.2 L 229.6 307.59999999999997 L 209.6 334.4 L 176.8 332.79999999999995 L 195.60000000000002 359.59999999999997 C 195.20000000000002 358.79999999999995 184.40000000000003 389.99999999999994 186.8 391.59999999999997 z M 288.4 243.6 C 288.4 244 288.4 244 288.4 243.6 z M 320 250.4 L 332.8 280.8 L 348 253.20000000000002 L 381.6 250.8 L 360 225.60000000000002 L 367.6 193.20000000000002 L 337.20000000000005 207.60000000000002 L 309.6 190.00000000000003 L 312 222.8 C 312 222.8 290.4 242.8 287.6 244 L 320 250.4 z M 1010 370 L 856.4 126.4 C 843.6 106.4 816 100.4 793.6 112 L 29.6 596 C 9.600000000000001 610.4 2.8000000000000007 638 15.200000000000001 658.8 L 168 900 C 182.4 920 210 926.8 230.8 914.4 L 994.8 430 C 1016 417.6 1022.4 390 1010 370 z M 978.4 405.6 L 214.39999999999998 889.6 C 207.59999999999997 894.8000000000001 199.2 891.2 194.39999999999998 884.4 L 42.39999999999998 643.5999999999999 C 37.199999999999974 636.8 39.99999999999998 627.1999999999999 46.39999999999998 623.5999999999999 L 810.4 139.5999999999999 C 817.1999999999999 134.39999999999992 825.6 137.99999999999991 830.4 144.7999999999999 L 984 385.6 C 988 391.6 984.4 402 978.4 405.6 z M 508.8 869.2 L 524 896.8000000000001 L 539.2 866.4000000000001 C 539.2 866.4000000000001 564 861.6000000000001 569.2 863.2 L 546 842.4000000000001 L 551.2 809.6000000000001 L 523.6 824.8000000000002 L 493.20000000000005 810.4000000000002 L 500.00000000000006 842.0000000000002 L 476.00000000000006 866.0000000000002 L 508.80000000000007 869.2000000000003 z" stroke-linecap="round" />
</g>
<g transform="matrix(0.0496 0 0 0.0488 24.9753 25)" id="95ad13d7-3a52-475d-9629-122af0b0f8a4"  >
<path style="stroke: none; stroke-width: 1; stroke-dasharray: none; stroke-linecap: butt; stroke-dashoffset: 0; stroke-linejoin: miter; stroke-miterlimit: 4; fill: rgb(64,158,255); fill-rule: nonzero; opacity: 1;"  transform=" translate(-511.511, -512)" d="M 104 522.4 C 96 382.79999999999995 164 244.39999999999998 292 165.2 C 418 84.39999999999999 573.2 83.19999999999999 698 146.79999999999998 L 728.4 127.99999999999999 C 691.6 107.99999999999999 651.1999999999999 91.19999999999999 610 82.39999999999998 C 554.8 69.59999999999998 496.4 67.99999999999997 441.2 77.19999999999997 C 383.2 86.39999999999998 327.6 107.59999999999997 277.2 139.99999999999997 C 226.8 172.4 184 211.6 151.2 260.8 C 117.99999999999999 308.8 95.19999999999999 360 82.39999999999999 415.6 C 73.6 458.8 69.6 499.6 73.6 541.6 L 104 522.4 z M 921.6 500.8 C 925.2 640 857.2 778.4000000000001 731.2 858 C 605.2 938.8 451.6 940 326.40000000000003 876.8 L 296 896 C 332.8 916 373.2 932.8 414.4 941.6 C 469.59999999999997 954.4 528 956 583.2 946.8000000000001 C 641.2 937.6 696.8000000000001 915.2 747.2 884.0000000000001 C 797.6 852.8000000000002 840.4000000000001 812.0000000000001 873.2 763.2000000000002 C 906 715.2000000000002 927.6 663.2000000000002 940.4000000000001 608.0000000000002 C 949.6000000000001 564.8000000000002 953.2 525.2000000000003 949.6000000000001 482.0000000000002 L 921.6000000000001 500.80000000000024 z" stroke-linecap="round" />
</g>
<g transform="matrix(0.848 -0.5299 0.5299 0.848 25 25)" id="52d7a25b-7c1b-47ed-ae20-22193f01eaa7"  >
<path style="stroke: none; stroke-width: 1; stroke-dasharray: none; stroke-linecap: butt; stroke-dashoffset: 0; stroke-linejoin: miter; stroke-miterlimit: 4; fill: rgb(64,158,255); fill-rule: nonzero; opacity: 1;"  transform=" translate(-14.955, -6.385)" d="M 2.52 1.76 C 2.08 2.74 1.36 3.6 0.38 4.36 L 0.59 5.06 C 1.77 4.19 2.63 3.19 3.15 2.06 L 2.52 1.76 Z M 2.86 4.07 C 2.36 5.21 1.56 6.23 0.47 7.12 L 0.68 7.81 C 1.11 7.47 1.51 7.12 1.87 6.74 L 1.87 10.97 L 2.56 10.97 L 2.56 5.92 C 2.92 5.43 3.23 4.91 3.48 4.36 L 2.86 4.07 Z M 6.19 1.81 L 6.19 2.9 L 3.98 2.9 L 3.98 3.55 L 6.19 3.55 L 6.19 4.79 L 3.62 4.79 L 3.62 5.47 L 9.56 5.47 L 9.56 4.79 L 6.92 4.79 L 6.92 3.55 L 9.15 3.55 L 9.15 2.9 L 6.92 2.9 L 6.92 1.81 L 6.19 1.81 Z M 3.65 6.68 L 3.65 7.35 L 7.52 7.35 L 7.52 9.84 C 7.52 10.14 7.36 10.3 7.05 10.3 C 6.62 10.3 6.17 10.28 5.7 10.25 L 5.86 10.94 L 7.3 10.94 C 7.94 10.94 8.26 10.63 8.26 10.03 L 8.26 7.35 L 9.42 7.35 L 9.42 6.68 L 8.26 6.68 L 8.26 5.95 L 7.52 5.95 L 7.52 6.68 L 3.65 6.68 Z M 4.72 7.76 L 4.16 8.12 C 4.74 8.68 5.21 9.2 5.55 9.66 L 6.11 9.27 C 5.79 8.84 5.32 8.34 4.72 7.76 Z M 12.45 7.19 L 14.67 7.19 L 14.67 8.34 L 12.45 8.34 L 12.45 7.19 Z M 14.67 9 L 14.67 11.03 L 15.39 11.03 L 15.39 9 L 17.64 9 L 17.64 9.56 L 18.34 9.56 L 18.34 4.74 L 15.39 4.74 L 15.39 3.74 L 14.67 3.74 L 14.67 4.74 L 11.75 4.74 L 11.75 9.59 L 12.45 9.59 L 12.45 9 L 14.67 9 Z M 15.39 8.34 L 15.39 7.19 L 17.64 7.19 L 17.64 8.34 L 15.39 8.34 Z M 17.64 6.55 L 15.39 6.55 L 15.39 5.4 L 17.64 5.4 L 17.64 6.55 Z M 14.67 5.4 L 14.67 6.55 L 12.45 6.55 L 12.45 5.4 L 14.67 5.4 Z M 19.15 2.59 L 15.36 2.59 C 15.26 2.27 15.17 1.99 15.07 1.74 L 14.31 1.87 C 14.42 2.09 14.52 2.33 14.62 2.59 L 10.81 2.59 L 10.81 4.39 L 11.51 4.39 L 11.51 3.24 L 18.45 3.24 L 18.45 4.34 L 19.15 4.34 L 19.15 2.59 Z M 22.61 5.91 C 22.91 6.34 23.26 6.91 23.67 7.61 L 24.07 7 C 23.57 6.3 23.09 5.68 22.61 5.13 L 22.61 4.48 L 23.79 4.48 L 23.79 3.79 L 22.61 3.79 L 22.61 1.84 L 21.92 1.84 L 21.92 3.79 L 20.54 3.79 L 20.54 4.48 L 21.89 4.48 C 21.59 5.8 21.09 6.98 20.37 8.01 L 20.67 8.75 C 21.18 7.93 21.6 7.01 21.92 5.99 L 21.92 11 L 22.61 11 L 22.61 5.91 Z M 24.04 2.93 L 24.04 3.58 L 25.98 3.58 C 25.34 4.67 24.83 5.34 24.43 5.6 C 24.39 5.62 24.35 5.64 24.29 5.66 L 24.44 6.25 C 25.23 6.22 25.98 6.18 26.68 6.14 C 25.86 7.06 24.85 7.73 23.64 8.16 L 24.03 8.76 C 25.97 8.04 27.43 6.68 28.43 4.7 L 27.85 4.39 C 27.65 4.79 27.42 5.16 27.16 5.52 C 26.54 5.57 25.91 5.61 25.27 5.65 C 25.69 5.24 26.17 4.55 26.72 3.58 L 29.46 3.58 L 29.46 2.93 L 27.24 2.93 C 27.1 2.51 26.95 2.14 26.8 1.82 L 26.06 1.94 C 26.24 2.24 26.4 2.57 26.54 2.93 L 24.04 2.93 Z M 27.24 8.97 C 27.98 9.67 28.57 10.33 29.01 10.95 L 29.53 10.43 C 29.03 9.8 28.41 9.17 27.69 8.53 C 28.34 7.87 28.91 7.09 29.39 6.19 L 28.78 5.87 C 27.61 8.06 25.85 9.54 23.5 10.31 L 23.89 10.93 C 25.17 10.49 26.28 9.83 27.24 8.97 Z" stroke-linecap="round" />
</g>
</g>
</svg>