<?xml version="1.0" encoding="UTF-8" standalone="no" ?>
<!DOCTYPE svg PUBLIC "-//W3C//DTD SVG 1.1//EN" "http://www.w3.org/Graphics/SVG/1.1/DTD/svg11.dtd">
<svg xmlns="http://www.w3.org/2000/svg" xmlns:xlink="http://www.w3.org/1999/xlink" version="1.1" width="50" height="50" viewBox="0 0 50 50" xml:space="preserve">
<desc>Created with Fabric.js 5.3.0</desc>
<defs>
<clipPath id="CLIPPATH_3" >
	<rect transform="matrix(1 0 0 1 25 25)" x="-25" y="-25" rx="0" ry="0" width="50" height="50" />
</clipPath>
</defs>
<g clip-path="url(#CLIPPATH_3)" >

<g transform="matrix(0.6728 -0.4302 0.4343 0.6585 25.3394 24.931)" id="30b7d010-bd1e-4380-a8f8-d625cea6dd51"  >
<path style="stroke: none; stroke-width: 1; stroke-dasharray: none; stroke-linecap: butt; stroke-dashoffset: 0; stroke-linejoin: miter; stroke-miterlimit: 4; fill: rgb(255,0,0); fill-rule: nonzero; opacity: 1;"  transform=" translate(-25.205, -6.39)" d="M 2.45 7.19 L 4.67 7.19 L 4.67 8.34 L 2.45 8.34 L 2.45 7.19 Z M 4.67 9 L 4.67 11.03 L 5.39 11.03 L 5.39 9 L 7.64 9 L 7.64 9.56 L 8.34 9.56 L 8.34 4.74 L 5.39 4.74 L 5.39 3.74 L 4.67 3.74 L 4.67 4.74 L 1.75 4.74 L 1.75 9.59 L 2.45 9.59 L 2.45 9 L 4.67 9 Z M 5.39 8.34 L 5.39 7.19 L 7.64 7.19 L 7.64 8.34 L 5.39 8.34 Z M 7.64 6.55 L 5.39 6.55 L 5.39 5.4 L 7.64 5.4 L 7.64 6.55 Z M 4.67 5.4 L 4.67 6.55 L 2.45 6.55 L 2.45 5.4 L 4.67 5.4 Z M 9.15 2.59 L 5.36 2.59 C 5.26 2.27 5.17 1.99 5.07 1.74 L 4.31 1.87 C 4.42 2.09 4.52 2.33 4.62 2.59 L 0.81 2.59 L 0.81 4.39 L 1.51 4.39 L 1.51 3.24 L 8.45 3.24 L 8.45 4.34 L 9.15 4.34 L 9.15 2.59 Z M 12.61 5.91 C 12.91 6.34 13.26 6.91 13.67 7.61 L 14.07 7 C 13.57 6.3 13.09 5.68 12.61 5.13 L 12.61 4.48 L 13.79 4.48 L 13.79 3.79 L 12.61 3.79 L 12.61 1.84 L 11.92 1.84 L 11.92 3.79 L 10.54 3.79 L 10.54 4.48 L 11.89 4.48 C 11.59 5.8 11.09 6.98 10.37 8.01 L 10.67 8.75 C 11.18 7.93 11.6 7.01 11.92 5.99 L 11.92 11 L 12.61 11 L 12.61 5.91 Z M 14.04 2.93 L 14.04 3.58 L 15.98 3.58 C 15.34 4.67 14.83 5.34 14.43 5.6 C 14.39 5.62 14.35 5.64 14.29 5.66 L 14.44 6.25 C 15.23 6.22 15.98 6.18 16.68 6.14 C 15.86 7.06 14.85 7.73 13.64 8.16 L 14.03 8.76 C 15.97 8.04 17.43 6.68 18.43 4.7 L 17.85 4.39 C 17.65 4.79 17.42 5.16 17.16 5.52 C 16.54 5.57 15.91 5.61 15.27 5.65 C 15.69 5.24 16.17 4.55 16.72 3.58 L 19.46 3.58 L 19.46 2.93 L 17.24 2.93 C 17.1 2.51 16.95 2.14 16.8 1.82 L 16.06 1.94 C 16.24 2.24 16.4 2.57 16.54 2.93 L 14.04 2.93 Z M 17.24 8.97 C 17.98 9.67 18.57 10.33 19.01 10.95 L 19.53 10.43 C 19.03 9.8 18.41 9.17 17.69 8.53 C 18.34 7.87 18.91 7.09 19.39 6.19 L 18.78 5.87 C 17.61 8.06 15.85 9.54 13.5 10.31 L 13.89 10.93 C 15.17 10.49 16.28 9.83 17.24 8.97 Z M 20.75 2.35 L 20.75 3.06 L 25.19 3.06 C 24.31 4.92 22.73 6.5 20.47 7.8 L 20.94 8.43 C 22.46 7.52 23.69 6.48 24.63 5.31 L 24.63 11.02 L 25.37 11.02 L 25.37 4.25 C 25.6 3.87 25.81 3.47 25.99 3.06 L 29.25 3.06 L 29.25 2.35 L 20.75 2.35 Z M 26.63 5.04 L 26.11 5.53 C 27.32 6.52 28.27 7.45 28.97 8.33 L 29.52 7.77 C 28.74 6.86 27.78 5.95 26.63 5.04 Z M 31.26 1.99 L 30.77 2.46 C 31.5 3.02 32.07 3.55 32.49 4.05 L 33 3.55 C 32.53 3.03 31.95 2.51 31.26 1.99 Z M 37.11 10.82 L 39.38 10.82 L 39.55 10.1 C 39.29 10.12 38.92 10.13 38.44 10.14 C 37.95 10.15 37.47 10.16 37.01 10.16 C 36.22 10.16 35.56 10.15 35.03 10.14 C 34.43 10.12 33.98 10.04 33.66 9.9 C 33.38 9.77 33.12 9.56 32.88 9.27 C 32.79 9.17 32.71 9.1 32.63 9.04 L 32.63 5.3 L 30.54 5.3 L 30.54 5.96 L 31.96 5.96 L 31.96 9 C 31.55 9.18 31.08 9.69 30.55 10.53 L 31.09 11.02 C 31.64 10.1 32.04 9.64 32.28 9.64 C 32.4 9.64 32.53 9.72 32.67 9.89 C 32.98 10.25 33.34 10.5 33.74 10.62 C 34.14 10.73 34.67 10.79 35.32 10.8 C 35.96 10.81 36.56 10.82 37.11 10.82 Z M 35.32 2.95 L 34.88 3.38 C 35.37 3.64 35.81 3.91 36.19 4.18 L 33.69 4.18 L 33.69 9.5 L 34.37 9.5 L 34.37 7.75 L 36.04 7.75 L 36.04 9.47 L 36.71 9.47 L 36.71 7.75 L 38.39 7.75 L 38.39 8.5 C 38.39 8.72 38.27 8.84 38.03 8.84 L 37.24 8.81 L 37.4 9.42 L 38.23 9.42 C 38.79 9.42 39.07 9.16 39.07 8.65 L 39.07 4.18 L 37.09 4.18 L 36.93 4.05 C 37.63 3.67 38.28 3.22 38.88 2.7 L 38.88 2.18 L 33.47 2.18 L 33.47 2.79 L 37.91 2.79 C 37.47 3.13 36.99 3.43 36.47 3.7 C 36.13 3.45 35.74 3.2 35.32 2.95 Z M 34.37 6.28 L 36.04 6.28 L 36.04 7.16 L 34.37 7.16 L 34.37 6.28 Z M 36.71 6.28 L 38.39 6.28 L 38.39 7.16 L 36.71 7.16 L 36.71 6.28 Z M 38.39 5.68 L 36.71 5.68 L 36.71 4.78 L 38.39 4.78 L 38.39 5.68 Z M 36.04 5.68 L 34.37 5.68 L 34.37 4.78 L 36.04 4.78 L 36.04 5.68 Z M 41.23 1.97 L 40.73 2.44 C 41.45 3.02 42.01 3.57 42.42 4.08 L 42.94 3.55 C 42.48 3.03 41.91 2.5 41.23 1.97 Z M 47.31 10.82 L 49.42 10.82 L 49.6 10.09 C 49.36 10.11 49.01 10.12 48.56 10.13 C 48.1 10.13 47.66 10.14 47.22 10.14 C 46.4 10.14 45.71 10.13 45.16 10.12 C 44.54 10.1 44.06 10.03 43.74 9.9 C 43.45 9.76 43.18 9.55 42.92 9.27 C 42.83 9.17 42.74 9.1 42.66 9.04 L 42.66 5.29 L 40.53 5.29 L 40.53 5.97 L 41.97 5.97 L 41.97 9 C 41.55 9.18 41.08 9.7 40.54 10.56 L 41.08 11.04 C 41.64 10.1 42.05 9.64 42.29 9.64 C 42.42 9.64 42.56 9.72 42.7 9.89 C 43.02 10.25 43.39 10.5 43.81 10.62 C 44.22 10.73 44.77 10.79 45.45 10.8 C 46.12 10.81 46.74 10.82 47.31 10.82 Z M 46.98 9.49 C 47.58 9.49 47.89 9.2 47.89 8.64 L 47.89 4.19 L 49.31 4.19 L 49.31 3.49 L 47.89 3.49 L 47.89 1.87 L 47.15 1.87 L 47.15 3.49 L 43.5 3.49 L 43.5 4.19 L 47.15 4.19 L 47.15 8.47 C 47.15 8.71 47.01 8.84 46.73 8.84 C 46.33 8.84 45.9 8.82 45.45 8.79 L 45.61 9.49 L 46.98 9.49 Z M 44.59 5.08 L 44.01 5.45 C 44.59 6.17 45.05 6.84 45.39 7.44 L 45.99 7.02 C 45.66 6.47 45.19 5.82 44.59 5.08 Z" stroke-linecap="round" />
</g>
<g transform="matrix(0.0496 0 0 0.0488 25.0308 25.0673)" id="95dd169f-f05e-45af-a9a5-64c277aa860c"  >
<path style="stroke: none; stroke-width: 1; stroke-dasharray: none; stroke-linecap: butt; stroke-dashoffset: 0; stroke-linejoin: miter; stroke-miterlimit: 4; fill: rgb(255,0,0); fill-rule: nonzero; opacity: 1;"  transform=" translate(-512.6302, -513.3777)" d="M 738.4 785.6 L 706.4 778.8000000000001 L 693.6 748.4000000000001 L 676.4 776.0000000000001 L 643.6 778.8000000000001 L 665.2 804.0000000000001 L 657.6 835.6000000000001 L 687.6 822.8000000000002 L 715.2 840.0000000000002 L 712.8000000000001 807.6000000000003 z M 515.6 159.6 L 500.40000000000003 132 L 486.00000000000006 162.4 C 485.6000000000001 162.4 452.80000000000007 168.4 455.6000000000001 168 L 480.80000000000007 189.6 L 475.6000000000001 222.39999999999998 L 503.2000000000001 204.79999999999998 L 533.6000000000001 219.2 L 526.8000000000002 186.39999999999998 L 548.4000000000002 162.39999999999998 L 515.6000000000003 159.59999999999997 z M 569.6 863.6 L 570.4 864.4 C 570.4 864 570 863.6 569.6 863.6 z M 186.8 391.6 L 218.4 382.40000000000003 L 243.6 402.40000000000003 L 243.6 369.6 L 270.4 350.8 L 238.79999999999998 339.2 L 229.6 307.59999999999997 L 209.6 334.4 L 176.8 332.79999999999995 L 195.60000000000002 359.59999999999997 C 195.20000000000002 358.79999999999995 184.40000000000003 389.99999999999994 186.8 391.59999999999997 z M 288.4 243.6 C 288.4 244 288.4 244 288.4 243.6 z M 320 250.4 L 332.8 280.8 L 348 253.20000000000002 L 381.6 250.8 L 360 225.60000000000002 L 367.6 193.20000000000002 L 337.20000000000005 207.60000000000002 L 309.6 190.00000000000003 L 312 222.8 C 312 222.8 290.4 242.8 287.6 244 L 320 250.4 z M 1010 370 L 856.4 126.4 C 843.6 106.4 816 100.4 793.6 112 L 29.6 596 C 9.600000000000001 610.4 2.8000000000000007 638 15.200000000000001 658.8 L 168 900 C 182.4 920 210 926.8 230.8 914.4 L 994.8 430 C 1016 417.6 1022.4 390 1010 370 z M 978.4 405.6 L 214.39999999999998 889.6 C 207.59999999999997 894.8000000000001 199.2 891.2 194.39999999999998 884.4 L 42.39999999999998 643.5999999999999 C 37.199999999999974 636.8 39.99999999999998 627.1999999999999 46.39999999999998 623.5999999999999 L 810.4 139.5999999999999 C 817.1999999999999 134.39999999999992 825.6 137.99999999999991 830.4 144.7999999999999 L 984 385.6 C 988 391.6 984.4 402 978.4 405.6 z M 508.8 869.2 L 524 896.8000000000001 L 539.2 866.4000000000001 C 539.2 866.4000000000001 564 861.6000000000001 569.2 863.2 L 546 842.4000000000001 L 551.2 809.6000000000001 L 523.6 824.8000000000002 L 493.20000000000005 810.4000000000002 L 500.00000000000006 842.0000000000002 L 476.00000000000006 866.0000000000002 L 508.80000000000007 869.2000000000003 z" stroke-linecap="round" />
</g>
<g transform="matrix(0.0496 0 0 0.0488 24.9753 25)" id="f04725a6-9831-460f-ac2a-f4f98c4b8b61"  >
<path style="stroke: none; stroke-width: 1; stroke-dasharray: none; stroke-linecap: butt; stroke-dashoffset: 0; stroke-linejoin: miter; stroke-miterlimit: 4; fill: rgb(255,0,0); fill-rule: nonzero; opacity: 1;"  transform=" translate(-511.511, -512)" d="M 104 522.4 C 96 382.79999999999995 164 244.39999999999998 292 165.2 C 418 84.39999999999999 573.2 83.19999999999999 698 146.79999999999998 L 728.4 127.99999999999999 C 691.6 107.99999999999999 651.1999999999999 91.19999999999999 610 82.39999999999998 C 554.8 69.59999999999998 496.4 67.99999999999997 441.2 77.19999999999997 C 383.2 86.39999999999998 327.6 107.59999999999997 277.2 139.99999999999997 C 226.8 172.4 184 211.6 151.2 260.8 C 117.99999999999999 308.8 95.19999999999999 360 82.39999999999999 415.6 C 73.6 458.8 69.6 499.6 73.6 541.6 L 104 522.4 z M 921.6 500.8 C 925.2 640 857.2 778.4000000000001 731.2 858 C 605.2 938.8 451.6 940 326.40000000000003 876.8 L 296 896 C 332.8 916 373.2 932.8 414.4 941.6 C 469.59999999999997 954.4 528 956 583.2 946.8000000000001 C 641.2 937.6 696.8000000000001 915.2 747.2 884.0000000000001 C 797.6 852.8000000000002 840.4000000000001 812.0000000000001 873.2 763.2000000000002 C 906 715.2000000000002 927.6 663.2000000000002 940.4000000000001 608.0000000000002 C 949.6000000000001 564.8000000000002 953.2 525.2000000000003 949.6000000000001 482.0000000000002 L 921.6000000000001 500.80000000000024 z" stroke-linecap="round" />
</g>
</g>
</svg>