<?xml version="1.0" encoding="UTF-8" standalone="no" ?>
<!DOCTYPE svg PUBLIC "-//W3C//DTD SVG 1.1//EN" "http://www.w3.org/Graphics/SVG/1.1/DTD/svg11.dtd">
<svg xmlns="http://www.w3.org/2000/svg" xmlns:xlink="http://www.w3.org/1999/xlink" version="1.1" width="50" height="50" viewBox="0 0 50 50" xml:space="preserve">
<desc>Created with Fabric.js 5.3.0</desc>
<defs>
<clipPath id="CLIPPATH_1" >
	<rect transform="matrix(1 0 0 1 25 25)" x="-25" y="-25" rx="0" ry="0" width="50" height="50" />
</clipPath>
</defs>
<g clip-path="url(#CLIPPATH_1)" >

<g transform="matrix(0.0496 0 0 0.0488 25.0308 25.0673)" id="5996f210-8383-492e-a43d-f4ba58af7221"  >
<path style="stroke: none; stroke-width: 1; stroke-dasharray: none; stroke-linecap: butt; stroke-dashoffset: 0; stroke-linejoin: miter; stroke-miterlimit: 4; fill: rgb(138,138,138); fill-rule: nonzero; opacity: 1;"  transform=" translate(-512.6302, -513.3777)" d="M 738.4 785.6 L 706.4 778.8000000000001 L 693.6 748.4000000000001 L 676.4 776.0000000000001 L 643.6 778.8000000000001 L 665.2 804.0000000000001 L 657.6 835.6000000000001 L 687.6 822.8000000000002 L 715.2 840.0000000000002 L 712.8000000000001 807.6000000000003 z M 515.6 159.6 L 500.40000000000003 132 L 486.00000000000006 162.4 C 485.6000000000001 162.4 452.80000000000007 168.4 455.6000000000001 168 L 480.80000000000007 189.6 L 475.6000000000001 222.39999999999998 L 503.2000000000001 204.79999999999998 L 533.6000000000001 219.2 L 526.8000000000002 186.39999999999998 L 548.4000000000002 162.39999999999998 L 515.6000000000003 159.59999999999997 z M 569.6 863.6 L 570.4 864.4 C 570.4 864 570 863.6 569.6 863.6 z M 186.8 391.6 L 218.4 382.40000000000003 L 243.6 402.40000000000003 L 243.6 369.6 L 270.4 350.8 L 238.79999999999998 339.2 L 229.6 307.59999999999997 L 209.6 334.4 L 176.8 332.79999999999995 L 195.60000000000002 359.59999999999997 C 195.20000000000002 358.79999999999995 184.40000000000003 389.99999999999994 186.8 391.59999999999997 z M 288.4 243.6 C 288.4 244 288.4 244 288.4 243.6 z M 320 250.4 L 332.8 280.8 L 348 253.20000000000002 L 381.6 250.8 L 360 225.60000000000002 L 367.6 193.20000000000002 L 337.20000000000005 207.60000000000002 L 309.6 190.00000000000003 L 312 222.8 C 312 222.8 290.4 242.8 287.6 244 L 320 250.4 z M 1010 370 L 856.4 126.4 C 843.6 106.4 816 100.4 793.6 112 L 29.6 596 C 9.600000000000001 610.4 2.8000000000000007 638 15.200000000000001 658.8 L 168 900 C 182.4 920 210 926.8 230.8 914.4 L 994.8 430 C 1016 417.6 1022.4 390 1010 370 z M 978.4 405.6 L 214.39999999999998 889.6 C 207.59999999999997 894.8000000000001 199.2 891.2 194.39999999999998 884.4 L 42.39999999999998 643.5999999999999 C 37.199999999999974 636.8 39.99999999999998 627.1999999999999 46.39999999999998 623.5999999999999 L 810.4 139.5999999999999 C 817.1999999999999 134.39999999999992 825.6 137.99999999999991 830.4 144.7999999999999 L 984 385.6 C 988 391.6 984.4 402 978.4 405.6 z M 508.8 869.2 L 524 896.8000000000001 L 539.2 866.4000000000001 C 539.2 866.4000000000001 564 861.6000000000001 569.2 863.2 L 546 842.4000000000001 L 551.2 809.6000000000001 L 523.6 824.8000000000002 L 493.20000000000005 810.4000000000002 L 500.00000000000006 842.0000000000002 L 476.00000000000006 866.0000000000002 L 508.80000000000007 869.2000000000003 z" stroke-linecap="round" />
</g>
<g transform="matrix(0.0496 0 0 0.0488 24.9753 25)" id="95ad13d7-3a52-475d-9629-122af0b0f8a4"  >
<path style="stroke: none; stroke-width: 1; stroke-dasharray: none; stroke-linecap: butt; stroke-dashoffset: 0; stroke-linejoin: miter; stroke-miterlimit: 4; fill: rgb(138,138,138); fill-rule: nonzero; opacity: 1;"  transform=" translate(-511.511, -512)" d="M 104 522.4 C 96 382.79999999999995 164 244.39999999999998 292 165.2 C 418 84.39999999999999 573.2 83.19999999999999 698 146.79999999999998 L 728.4 127.99999999999999 C 691.6 107.99999999999999 651.1999999999999 91.19999999999999 610 82.39999999999998 C 554.8 69.59999999999998 496.4 67.99999999999997 441.2 77.19999999999997 C 383.2 86.39999999999998 327.6 107.59999999999997 277.2 139.99999999999997 C 226.8 172.4 184 211.6 151.2 260.8 C 117.99999999999999 308.8 95.19999999999999 360 82.39999999999999 415.6 C 73.6 458.8 69.6 499.6 73.6 541.6 L 104 522.4 z M 921.6 500.8 C 925.2 640 857.2 778.4000000000001 731.2 858 C 605.2 938.8 451.6 940 326.40000000000003 876.8 L 296 896 C 332.8 916 373.2 932.8 414.4 941.6 C 469.59999999999997 954.4 528 956 583.2 946.8000000000001 C 641.2 937.6 696.8000000000001 915.2 747.2 884.0000000000001 C 797.6 852.8000000000002 840.4000000000001 812.0000000000001 873.2 763.2000000000002 C 906 715.2000000000002 927.6 663.2000000000002 940.4000000000001 608.0000000000002 C 949.6000000000001 564.8000000000002 953.2 525.2000000000003 949.6000000000001 482.0000000000002 L 921.6000000000001 500.80000000000024 z" stroke-linecap="round" />
</g>
<g transform="matrix(0.7408 -0.4629 0.4629 0.7408 24.3022 25.4778)" id="a6184ca1-4b8a-421e-a3dd-324462236fec"  >
<path style="stroke: none; stroke-width: 1; stroke-dasharray: none; stroke-linecap: butt; stroke-dashoffset: 0; stroke-linejoin: miter; stroke-miterlimit: 4; fill: rgb(138,138,138); fill-rule: nonzero; opacity: 1;"  transform=" translate(-24.79, -6.395)" d="M 2.48 2.04 C 2.03 3.38 1.36 4.45 0.46 5.25 L 1.07 5.78 C 1.5 5.38 1.89 4.88 2.25 4.29 L 4.64 4.29 L 4.64 4.94 C 4.62 5.42 4.58 5.87 4.5 6.29 L 0.63 6.29 L 0.63 6.98 L 4.35 6.98 C 4.2 7.49 3.99 7.95 3.73 8.35 C 3.11 9.18 2.01 9.85 0.45 10.37 L 0.84 10.98 C 2.42 10.47 3.55 9.76 4.24 8.85 C 4.59 8.37 4.86 7.8 5.05 7.14 C 5.59 8.76 6.95 10.03 9.13 10.97 L 9.53 10.34 C 7.44 9.54 6.15 8.42 5.66 6.98 L 9.38 6.98 L 9.38 6.29 L 5.25 6.29 C 5.32 5.87 5.36 5.42 5.38 4.94 L 5.38 4.29 L 8.73 4.29 L 8.73 3.59 L 5.38 3.59 L 5.38 1.84 L 4.64 1.84 L 4.64 3.59 L 2.62 3.59 C 2.81 3.19 2.99 2.76 3.15 2.3 L 2.48 2.04 Z M 11.85 4.04 C 11.44 4.93 10.95 5.69 10.39 6.32 L 10.97 6.74 C 11.54 6.06 12.04 5.27 12.47 4.35 L 11.85 4.04 Z M 14.48 5.9 L 14.95 5.42 C 14.42 4.78 13.96 4.3 13.56 3.98 L 13.12 4.41 C 13.57 4.83 14.02 5.32 14.48 5.9 Z M 11.81 6.5 L 11.36 7.01 C 11.78 7.35 12.21 7.73 12.63 8.15 C 12.04 9.06 11.28 9.77 10.35 10.28 L 10.79 10.92 C 11.75 10.37 12.53 9.62 13.15 8.68 C 13.49 9.04 13.85 9.43 14.21 9.86 L 14.72 9.29 C 14.34 8.85 13.94 8.43 13.52 8.02 C 13.79 7.5 14.02 6.92 14.2 6.3 L 13.58 6.04 C 13.42 6.56 13.22 7.05 12.99 7.51 C 12.61 7.16 12.22 6.82 11.81 6.5 Z M 12.84 1.76 L 12.09 1.88 C 12.27 2.19 12.44 2.53 12.59 2.89 L 10.54 2.89 L 10.54 3.58 L 15.17 3.58 L 15.17 2.89 L 13.29 2.89 C 13.14 2.47 12.99 2.1 12.84 1.76 Z M 16.49 4.15 L 17.98 4.15 C 17.94 5.42 17.67 6.54 17.19 7.52 C 16.81 6.76 16.5 5.87 16.26 4.85 C 16.34 4.63 16.41 4.39 16.49 4.15 Z M 16.8 8.2 C 16.21 9.09 15.38 9.81 14.32 10.37 L 14.73 11.02 C 15.73 10.45 16.55 9.73 17.18 8.87 C 17.74 9.77 18.42 10.48 19.22 10.99 L 19.64 10.36 C 18.84 9.87 18.15 9.16 17.58 8.24 C 18.23 7.1 18.58 5.74 18.64 4.15 L 19.49 4.15 L 19.49 3.45 L 16.68 3.45 C 16.79 2.97 16.89 2.46 16.97 1.9 L 16.25 1.78 C 16.01 3.65 15.53 5.13 14.83 6.23 L 15.29 6.78 C 15.49 6.48 15.69 6.16 15.87 5.8 C 16.12 6.68 16.43 7.48 16.8 8.2 Z M 21.26 1.99 L 20.77 2.46 C 21.5 3.02 22.07 3.55 22.49 4.05 L 23 3.55 C 22.53 3.03 21.95 2.51 21.26 1.99 Z M 27.11 10.82 L 29.38 10.82 L 29.55 10.1 C 29.29 10.12 28.92 10.13 28.44 10.14 C 27.95 10.15 27.47 10.16 27.01 10.16 C 26.22 10.16 25.56 10.15 25.03 10.14 C 24.43 10.12 23.98 10.04 23.66 9.9 C 23.38 9.77 23.12 9.56 22.88 9.27 C 22.79 9.17 22.71 9.1 22.63 9.04 L 22.63 5.3 L 20.54 5.3 L 20.54 5.96 L 21.96 5.96 L 21.96 9 C 21.55 9.18 21.08 9.69 20.55 10.53 L 21.09 11.02 C 21.64 10.1 22.04 9.64 22.28 9.64 C 22.4 9.64 22.53 9.72 22.67 9.89 C 22.98 10.25 23.34 10.5 23.74 10.62 C 24.14 10.73 24.67 10.79 25.32 10.8 C 25.96 10.81 26.56 10.82 27.11 10.82 Z M 25.32 2.95 L 24.88 3.38 C 25.37 3.64 25.81 3.91 26.19 4.18 L 23.69 4.18 L 23.69 9.5 L 24.37 9.5 L 24.37 7.75 L 26.04 7.75 L 26.04 9.47 L 26.71 9.47 L 26.71 7.75 L 28.39 7.75 L 28.39 8.5 C 28.39 8.72 28.27 8.84 28.03 8.84 L 27.24 8.81 L 27.4 9.42 L 28.23 9.42 C 28.79 9.42 29.07 9.16 29.07 8.65 L 29.07 4.18 L 27.09 4.18 L 26.93 4.05 C 27.63 3.67 28.28 3.22 28.88 2.7 L 28.88 2.18 L 23.47 2.18 L 23.47 2.79 L 27.91 2.79 C 27.47 3.13 26.99 3.43 26.47 3.7 C 26.13 3.45 25.74 3.2 25.32 2.95 Z M 24.37 6.28 L 26.04 6.28 L 26.04 7.16 L 24.37 7.16 L 24.37 6.28 Z M 26.71 6.28 L 28.39 6.28 L 28.39 7.16 L 26.71 7.16 L 26.71 6.28 Z M 28.39 5.68 L 26.71 5.68 L 26.71 4.78 L 28.39 4.78 L 28.39 5.68 Z M 26.04 5.68 L 24.37 5.68 L 24.37 4.78 L 26.04 4.78 L 26.04 5.68 Z M 34.25 2.47 L 34.25 3.18 L 39.04 3.18 L 39.04 2.47 L 34.25 2.47 Z M 33.98 5.01 L 33.98 5.72 L 37.13 5.72 L 37.13 9.83 C 37.13 10.14 36.96 10.3 36.62 10.3 C 36.19 10.3 35.74 10.28 35.27 10.25 L 35.42 10.96 L 36.87 10.96 C 37.53 10.96 37.86 10.64 37.86 10.01 L 37.86 5.72 L 39.48 5.72 L 39.48 5.01 L 33.98 5.01 Z M 32.67 1.92 C 32.2 2.86 31.45 3.7 30.41 4.44 L 30.62 5.16 C 31.86 4.31 32.76 3.33 33.32 2.22 L 32.67 1.92 Z M 33.14 4.2 C 32.58 5.31 31.69 6.29 30.47 7.15 L 30.68 7.87 C 31.16 7.54 31.59 7.19 31.99 6.83 L 31.99 11 L 32.7 11 L 32.7 6.1 C 33.14 5.6 33.5 5.06 33.79 4.5 L 33.14 4.2 Z M 41.25 1.86 L 41.25 2.98 L 40.63 2.98 L 40.63 3.65 L 41.25 3.65 L 41.25 7.88 L 40.52 7.88 L 40.52 8.56 L 45.25 8.56 L 45.25 7.88 L 44.6 7.88 L 44.6 3.65 L 45.2 3.65 L 45.2 2.98 L 44.6 2.98 L 44.6 1.88 L 43.9 1.88 L 43.9 2.98 L 41.95 2.98 L 41.95 1.86 L 41.25 1.86 Z M 41.95 7.88 L 41.95 6.9 L 43.9 6.9 L 43.9 7.88 L 41.95 7.88 Z M 43.9 3.65 L 43.9 4.65 L 41.95 4.65 L 41.95 3.65 L 43.9 3.65 Z M 41.95 6.27 L 41.95 5.28 L 43.9 5.28 L 43.9 6.27 L 41.95 6.27 Z M 43.72 8.82 L 43.16 9.17 C 43.61 9.77 43.97 10.33 44.23 10.84 L 44.76 10.46 C 44.75 10.48 44.74 10.5 44.72 10.52 L 45.27 11.03 C 45.93 10.15 46.33 9.06 46.47 7.74 L 48.41 7.74 L 48.41 9.73 C 48.41 10.07 48.28 10.24 48.02 10.24 C 47.7 10.24 47.36 10.22 46.99 10.2 L 47.19 10.91 L 48.25 10.91 C 48.83 10.91 49.13 10.6 49.13 9.99 L 49.13 2.21 L 45.81 2.21 L 45.81 6.89 C 45.79 8.29 45.46 9.46 44.8 10.39 C 44.55 9.95 44.19 9.42 43.72 8.82 Z M 41.77 8.81 C 41.4 9.49 40.96 10.07 40.46 10.56 L 41.03 10.97 C 41.53 10.44 41.97 9.81 42.35 9.09 L 41.77 8.81 Z M 46.52 5.3 L 48.41 5.3 L 48.41 7.08 L 46.51 7.08 C 46.51 7 46.52 6.92 46.52 6.83 L 46.52 5.3 Z M 48.41 4.64 L 46.52 4.64 L 46.52 2.89 L 48.41 2.89 L 48.41 4.64 Z" stroke-linecap="round" />
</g>
</g>
</svg>